<?xml version="1.0" encoding="UTF-8"?>
<svg width="130px" height="73px" viewBox="0 0 130 73" version="1.1" xmlns="http://www.w3.org/2000/svg" xmlns:xlink="http://www.w3.org/1999/xlink">
    <title>A7C7CF06-1867-4B97-B7A3-472203224E50</title>
    <g id="Enterprise-v2-(Your-bank)" stroke="none" stroke-width="1" fill="none" fill-rule="evenodd">
        <g id="Signup.i" transform="translate(-655, -105)" fill-rule="nonzero">
            <g id="Brand-/-Alvin-2.0" transform="translate(655.4247, 105)">
                <g id="Group" fill="#131313">
                    <polygon id="Path" points="91.318768 3.04774709 85.2581421 3.04774709 85.2581421 9.14840696 91.318768 9.14840696"></polygon>
                    <path d="M35.161445,23.4172873 L39.1596759,12.6132821 L32.6677163,12.6132821 L30.3496205,18.8211297 C29.2377094,17.2778849 27.2476339,15.459568 25.5184248,14.3721938 C22.9355883,12.7501725 20.1228793,11.9275391 17.1694058,11.9275391 C14.2159322,11.9275391 11.186265,12.7359669 8.56081165,14.3282856 C5.94956393,15.9154386 3.847135,18.0914784 2.3129301,20.791834 C0.778725211,23.4999381 0,26.47924 0,29.6445062 C0,32.8097723 0.778725211,35.8523537 2.31809578,38.5333381 C3.85230067,41.2143224 5.95343818,43.3748651 8.56081165,44.9568525 C11.1823907,46.5491712 14.0777505,47.357599 17.1694058,47.357599 C20.2610611,47.357599 23.3772533,46.4213208 26.1021459,44.5797583 C27.9101314,43.3593681 29.2377094,42.080864 30.3160437,40.3749005 L32.7464928,46.6718559 L39.1700073,46.6718559 L35.1666106,35.8768907 L35.1666106,23.406956 L35.161445,23.4172873 L35.161445,23.4172873 Z M22.8426062,39.8415447 C21.0694889,40.904382 19.1633556,41.4390291 17.1681144,41.4390291 C15.1728731,41.4390291 13.350682,40.919879 11.6511755,39.8557503 C9.9503777,38.7929131 8.5788915,37.3426504 7.56900242,35.5592018 C6.56427902,33.7809189 6.05933448,31.7908433 6.05933448,29.6548375 C6.05933448,27.5188317 6.56944469,25.5829957 7.57287668,23.7750102 C8.57760008,21.9721903 9.94908628,20.5115962 11.6498841,19.448759 C13.326145,18.4001274 15.1832045,17.8654802 17.1668229,17.8654802 C19.1504414,17.8654802 21.0669061,18.4040016 22.8413148,19.4629646 C24.6350947,20.5361332 26.099563,22.0006015 27.1921029,23.8137527 C28.2756028,25.6126984 28.8231642,27.5769455 28.8231642,29.6548375 C28.8231642,31.7327295 28.2743114,33.7021423 27.1921029,35.4959223 C26.099563,37.3142392 24.6338033,38.7787075 22.8413148,39.8467104 L22.8413148,39.8415447 L22.8426062,39.8415447 Z" id="Shape"></path>
                    <polygon id="Path" points="48.8323987 0 42.7717728 0 42.7717728 46.6770216 48.8323987 46.6770216"></polygon>
                    <polygon id="Path" points="67.09951 38.0580961 57.1090983 12.6029508 51.087215 12.6132821 63.9058326 46.6770216 70.3977922 46.6770216 82.858687 12.6132821 76.40547 12.6132821 67.1008014 38.0580961"></polygon>
                    <polygon id="Path" points="91.318768 12.6119907 85.2581421 12.6119907 85.2581421 46.6757302 91.318768 46.6757302"></polygon>
                    <path d="M127.363543,19.5120385 C126.16769,17.1745714 124.452686,15.3084721 122.257275,13.9602314 C120.061864,12.6132821 117.543599,11.9314133 114.769632,11.9314133 C111.995666,11.9314133 109.408955,12.7049728 107.139933,14.2288464 C105.659968,15.2232385 104.420206,17.2468909 103.436146,18.5654289 L101.280768,12.6171564 L94.6661242,12.6171564 L98.3608718,22.3337874 L98.3608718,46.6808959 L104.421498,46.6808959 L104.421498,27.6001911 C104.421498,25.7237603 104.863163,24.0965733 105.769738,22.6217737 C106.676314,21.1521397 107.91091,19.9808233 109.439949,19.1336529 C110.974154,18.2864826 112.654289,17.8551489 114.432572,17.8551489 C116.994746,17.8551489 119.02873,18.7229819 120.635254,20.5103048 C122.281812,22.3376616 123.079909,24.6557574 123.079909,27.5950254 L123.079909,46.6757302 L129.140535,46.6757302 L129.140535,27.2527995 C129.140535,24.425885 128.542608,21.8236772 127.367417,19.5107471 L127.362252,19.5107471 L127.363543,19.5120385 Z" id="Path"></path>
                </g>
                <g id="Group" transform="translate(0.9272, 51.6154)" fill="#042EBD">
                    <path d="M0.00129141826,10.9099015 C0.00129141826,7.03952094 2.32326145,4.3779079 6.09807703,4.3779079 C9.8728926,4.3779079 11.952076,6.8458082 11.952076,10.6684062 C11.952076,11.0067578 11.952076,11.3696464 11.9275391,11.5633591 L2.44465477,11.5633591 C2.49372866,13.619297 3.70249615,15.530596 6.1458595,15.530596 C8.32319069,15.530596 9.17036107,14.1268243 9.38731933,13.3041909 L11.8061457,13.3041909 C11.1526881,15.6752348 9.33824544,17.4651406 6.09678561,17.4651406 C2.17733119,17.4651406 0,14.6834256 0,10.90861 L0.00129141826,10.9099015 Z M9.4841757,9.69984255 C9.4841757,7.76400658 8.12947795,6.31245246 6.02446618,6.31245246 C4.04084774,6.31245246 2.58929361,7.66715021 2.44336335,9.69984255 L9.4841757,9.69984255 Z" id="Shape"></path>
                    <path d="M19.5494896,6.43384577 C17.5180887,6.43384577 16.2111734,7.66715021 16.2111734,9.53066676 L16.2111734,17.102252 L13.8401295,17.102252 L13.8401295,4.76404196 L16.2111734,4.76404196 L16.2111734,6.31245246 L16.2589559,6.31245246 C16.9124135,5.36842571 18.1947919,4.40115343 20.3230492,4.40115343 C22.5972367,4.40115343 24.4362163,5.70806871 24.4362163,8.53756612 L24.4362163,17.1009606 L22.0651724,17.1009606 L22.0651724,9.18973234 C22.0651724,7.54446548 21.3393953,6.43126294 19.5494896,6.43126294 L19.5494896,6.43384577 Z" id="Path"></path>
                    <path d="M27.5588657,13.619297 L27.5588657,6.72441488 L25.76896,6.72441488 L25.76896,4.76533338 L27.5588657,4.76533338 L27.5588657,0.798096485 L29.9299096,0.798096485 L29.9299096,4.76533338 L32.3009535,4.76533338 L32.3009535,6.72441488 L29.9299096,6.72441488 L29.9299096,13.6916164 C29.9299096,14.9985317 30.2927981,15.2878094 31.3091443,15.2878094 C31.7198153,15.2878094 31.913528,15.2632724 32.3254905,15.190953 L32.3254905,17.102252 C31.7211067,17.2236453 31.3336812,17.2468909 30.8248625,17.2468909 C28.7934615,17.2468909 27.5588657,16.4733313 27.5588657,13.6180056 L27.5588657,13.619297 Z" id="Path"></path>
                    <path d="M33.2682258,10.9099015 C33.2682258,7.03952094 35.5901958,4.3779079 39.3650114,4.3779079 C43.139827,4.3779079 45.2190104,6.8458082 45.2190104,10.6684062 C45.2190104,11.0067578 45.2190104,11.3696464 45.1944734,11.5633591 L35.7115892,11.5633591 C35.760663,13.619297 36.9694305,15.530596 39.4127939,15.530596 C41.5901251,15.530596 42.4372955,14.1268243 42.6542537,13.3041909 L45.0730801,13.3041909 C44.4196225,15.6752348 42.6051798,17.4651406 39.36372,17.4651406 C35.4442656,17.4651406 33.2669344,14.6834256 33.2669344,10.90861 L33.2682258,10.9099015 Z M42.7511101,9.69984255 C42.7511101,7.76400658 41.3964123,6.31245246 39.2914006,6.31245246 C37.3077821,6.31245246 35.856228,7.66715021 35.7102977,9.69984255 L42.7511101,9.69984255 L42.7511101,9.69984255 Z" id="Shape"></path>
                    <path d="M49.4781078,17.1035434 L47.1070639,17.1035434 L47.1070639,4.76533338 L49.4781078,4.76533338 L49.4781078,7.11184036 L49.5258903,7.11184036 C50.1793479,5.56342987 51.1711571,4.47476427 52.840961,4.47476427 C53.2761689,4.47476427 53.6145205,4.49930122 53.9787004,4.54708369 L53.9787004,6.82127125 C53.6881313,6.77348878 53.4711731,6.74895183 53.180604,6.74895183 C51.0278097,6.74895183 49.4793992,8.36968175 49.4793992,10.7161887 L49.4793992,17.1035434 L49.4781078,17.1035434 Z" id="Path"></path>
                    <path d="M57.824544,15.5783785 L57.7767615,15.5783785 L57.7767615,21.384595 L55.4057176,21.384595 L55.4057176,4.76533338 L57.7767615,4.76533338 L57.7767615,6.21688751 L57.824544,6.21688751 C58.5025386,5.3464716 59.6880606,4.40244485 61.6226051,4.40244485 C64.7672086,4.40244485 67.1627895,6.87034514 67.1627895,10.9344384 C67.1627895,14.9985317 64.7685,17.441895 61.6226051,17.441895 C59.6880606,17.441895 58.5025386,16.5714791 57.824544,15.5796699 L57.824544,15.5783785 Z M61.2364711,15.4815221 C63.5584411,15.4815221 64.6716436,13.3519734 64.6716436,10.933147 C64.6716436,8.51432059 63.5584411,6.38477188 61.2364711,6.38477188 C59.1082138,6.38477188 57.8012985,8.12689511 57.8012985,10.933147 C57.8012985,13.7393989 59.1082138,15.4815221 61.2364711,15.4815221 Z" id="Shape"></path>
                    <path d="M71.4464238,17.1035434 L69.0753799,17.1035434 L69.0753799,4.76533338 L71.4464238,4.76533338 L71.4464238,7.11184036 L71.4942063,7.11184036 C72.1476639,5.56342987 73.1394732,4.47476427 74.809277,4.47476427 C75.2444849,4.47476427 75.5828365,4.49930122 75.9470165,4.54708369 L75.9470165,6.82127125 C75.6564474,6.77348878 75.4394891,6.74895183 75.14892,6.74895183 C72.9961257,6.74895183 71.4477153,8.36968175 71.4477153,10.7161887 L71.4477153,17.1035434 L71.4464238,17.1035434 Z" id="Path"></path>
                    <path d="M77.2281034,0 L79.9129619,0 L79.9129619,2.56475666 L77.2281034,2.56475666 L77.2281034,0 Z M77.3740336,4.76533338 L79.7450776,4.76533338 L79.7450776,17.1035434 L77.3740336,17.1035434 L77.3740336,4.76533338 Z" id="Shape"></path>
                    <path d="M81.4626639,12.9903763 L83.8569533,12.9903763 C83.9538097,14.4173935 84.8242256,15.530596 87.1229501,15.530596 C89.2034249,15.530596 89.7600262,14.6111062 89.7600262,13.7161533 C89.7600262,12.1677428 88.1147593,11.9985671 86.5185663,11.6602155 C84.3657721,11.1513967 81.8978718,10.522476 81.8978718,7.95901074 C81.8978718,5.82946203 83.6154581,4.40244485 86.5908858,4.40244485 C89.9782759,4.40244485 91.5990058,6.21688751 91.7681816,8.34643622 L89.3738921,8.34643622 C89.2047163,7.40240947 88.697189,6.31374387 86.6399597,6.31374387 C85.0424753,6.31374387 84.3657721,6.94266457 84.3657721,7.86215437 C84.3657721,9.1445327 85.7450068,9.2646346 87.48713,9.65206008 C89.7613176,10.1841244 92.2292179,10.837582 92.2292179,13.5960514 C92.2292179,15.9903409 90.3902383,17.441895 87.1487785,17.441895 C83.3997913,17.441895 81.5362747,15.5060591 81.4639553,12.9903763 L81.4626639,12.9903763 Z" id="Path"></path>
                    <path d="M93.341129,10.9099015 C93.341129,7.03952094 95.6630991,4.3779079 99.4379146,4.3779079 C103.21273,4.3779079 105.291914,6.8458082 105.291914,10.6684062 C105.291914,11.0067578 105.291914,11.3696464 105.267377,11.5633591 L95.7844924,11.5633591 C95.8335663,13.619297 97.0423338,15.530596 99.4856971,15.530596 C101.663028,15.530596 102.510199,14.1268243 102.727157,13.3041909 L105.145983,13.3041909 C104.492526,15.6752348 102.678083,17.4651406 99.4366232,17.4651406 C95.5171688,17.4651406 93.3398376,14.6834256 93.3398376,10.90861 L93.341129,10.9099015 Z M102.824013,9.69984255 C102.824013,7.76400658 101.469316,6.31245246 99.3643038,6.31245246 C97.3806853,6.31245246 95.9291312,7.66715021 95.7832009,9.69984255 L102.824013,9.69984255 Z" id="Shape"></path>
                </g>
            </g>
        </g>
    </g>
</svg>